<?xml version="1.0" encoding="utf-8"?>
<!-- Generator: Adobe Illustrator 24.0.3, SVG Export Plug-In . SVG Version: 6.00 Build 0)  -->
<svg version="1.1" id="Layer_1" xmlns="http://www.w3.org/2000/svg" xmlns:xlink="http://www.w3.org/1999/xlink" x="0px" y="0px"
	 viewBox="0 0 1165 6719" style="enable-background:new 0 0 1165 6719;" xml:space="preserve">
<style type="text/css">
	.st0{fill:none;stroke:#FFFFFF;stroke-width:3;stroke-miterlimit:10;}
</style>
<path class="st0" d="M581.41-0.2c2,121,12.13,223.78-104,392c-108.66,157.39-358.17,412.32-294,669c22,88,104,171,180.71,224.77
	c138.63,97.17,324.36,176.42,343.67,344.62c10.87,94.75-33.14,185.82-65.61,275.49S590.02,2101.9,643.3,2181
	c27.1,40.24,69.36,67.15,109.47,94.43c101.39,68.94,198.28,149.42,261.7,254.35s89.32,238.17,44.19,352.17
	c-61.72,155.91-231.35,235.37-386.01,300.14c-77,32.24-154,64.49-231,96.73c-49.66,20.8-101.3,43.02-135.87,84.29
	c-80.67,96.31-33.38,241.2,17.39,356.11s89.22,210.69,8.75,307.16c-25.24,30.25-60.27,50.9-86.65,80.15
	c-26.38,29.26-43.1,74.13-22.67,107.82c9.72,16.03,26.14,26.64,42.34,36.08c80.74,47.05,170.26,78.99,262.54,93.68
	c87.07,13.85,178.73,13.12,258.26,51.18c133.32,63.8,206.92,290.71,145.59,425.2c-61.34,134.53-212.04,199.12-348.05,257.08
	s-284.16,136.68-325.42,278.66c-16.34,56.23-13.81,117.84-38.75,170.81c-26.54,56.38-81.64,97.03-101.2,156.19
	c-40.22,121.66,92.9,235.78,219.27,256.95c126.37,21.17,259.73-7.77,381.9,30.86c149.26,47.18,257.16,201.72,250.05,358.11"/>
</svg>
